<?xml version="1.0" encoding="UTF-8"?>
<!DOCTYPE svg PUBLIC "-//W3C//DTD SVG 1.1//EN" "http://www.w3.org/Graphics/SVG/1.1/DTD/svg11.dtd">
<svg xmlns="http://www.w3.org/2000/svg" version="1.1" width="1024px" height="1024px" style="shape-rendering:geometricPrecision; text-rendering:geometricPrecision; image-rendering:optimizeQuality; fill-rule:evenodd; clip-rule:evenodd" xmlns:xlink="http://www.w3.org/1999/xlink">
<g><path style="opacity:1" fill="#050808" d="M 487.5,-0.5 C 505.167,-0.5 522.833,-0.5 540.5,-0.5C 684.455,10.3967 804.289,69.3967 900,176.5C 973.731,264.677 1014.9,366.343 1023.5,481.5C 1023.5,501.5 1023.5,521.5 1023.5,541.5C 1010.25,701.202 940.25,829.369 813.5,926C 732.206,984.157 641.54,1016.66 541.5,1023.5C 521.833,1023.5 502.167,1023.5 482.5,1023.5C 338.026,1012.51 217.859,953.178 122,845.5C 48.6223,757.586 7.78894,656.252 -0.5,541.5C -0.5,521.5 -0.5,501.5 -0.5,481.5C 14.1618,308.187 93.4951,173.687 237.5,78C 314.082,30.4175 397.416,4.25081 487.5,-0.5 Z"/></g>
<g><path style="opacity:1" fill="#a82b2b" d="M 288.5,173.5 C 292.803,172.796 296.303,174.13 299,177.5C 299.333,265.5 299.667,353.5 300,441.5C 303.657,457.494 313.657,465.827 330,466.5C 393.317,463.687 442.317,436.021 477,383.5C 492.787,357.026 501.454,328.36 503,297.5C 503.333,257.5 503.667,217.5 504,177.5C 507.509,173.387 511.676,172.554 516.5,175C 534.062,191.893 550.895,209.393 567,227.5C 578.813,243.461 587.146,261.128 592,280.5C 594.194,368.256 562.027,440.423 495.5,497C 443.597,537.192 384.597,557.526 318.5,558C 308.671,562.495 302.505,569.995 300,580.5C 299.667,668.5 299.333,756.5 299,844.5C 295.378,849.862 290.878,850.696 285.5,847C 267.236,829.74 250.069,811.573 234,792.5C 221.333,775.496 213.333,756.496 210,735.5C 209.333,586.167 209.333,436.833 210,287.5C 213.262,266.982 220.929,248.315 233,231.5C 250.301,211.032 268.801,191.699 288.5,173.5 Z"/></g>
<g><path style="opacity:1" fill="#a82b2b" d="M 728.5,173.5 C 731.893,173.062 734.893,173.895 737.5,176C 753.029,191.195 768.196,206.695 783,222.5C 797.181,239.862 806.847,259.529 812,281.5C 812.667,434.5 812.667,587.5 812,740.5C 806.429,763.642 796.096,784.308 781,802.5C 765.833,817.667 750.667,832.833 735.5,848C 729.495,850.44 725.329,848.607 723,842.5C 722.99,753.123 722.323,663.79 721,574.5C 716.918,565.416 710.085,559.583 700.5,557C 638.469,555.934 588.969,580.101 552,629.5C 533.216,656.182 522.549,685.849 520,718.5C 519.667,760.5 519.333,802.5 519,844.5C 515.29,849.888 510.79,850.722 505.5,847C 488.272,830.44 471.772,813.274 456,795.5C 446.249,782 438.582,767.333 433,751.5C 429.079,735.991 428.412,720.324 431,704.5C 444.331,604.208 496.498,532.375 587.5,489C 624.248,473.596 662.581,465.596 702.5,465C 712.719,461.746 719.219,454.913 722,444.5C 722.333,356.167 722.667,267.833 723,179.5C 724.36,176.977 726.193,174.977 728.5,173.5 Z"/></g>
</svg>
