<?xml version="1.0" encoding="UTF-8"?>
<!DOCTYPE svg PUBLIC "-//W3C//DTD SVG 1.1//EN" "http://www.w3.org/Graphics/SVG/1.1/DTD/svg11.dtd">
<svg xmlns="http://www.w3.org/2000/svg" version="1.1" width="512px" height="512px" style="shape-rendering:geometricPrecision; text-rendering:geometricPrecision; image-rendering:optimizeQuality; fill-rule:evenodd; clip-rule:evenodd" xmlns:xlink="http://www.w3.org/1999/xlink">
<g><path style="opacity:0.989" fill="#b62f2f" d="M 235.5,47.5 C 306.881,42.8864 366.381,66.8864 414,119.5C 461.161,177.961 474.827,243.628 455,316.5C 434.752,377.745 395.252,421.578 336.5,448C 260.724,476.4 190.391,466.733 125.5,419C 68.5583,370.909 42.7249,309.409 48,234.5C 58.8462,155.026 100.346,98.1931 172.5,64C 192.847,55.498 213.847,49.998 235.5,47.5 Z M 237.5,80.5 C 238.833,138.496 239.5,196.829 239.5,255.5C 239.167,313.833 238.833,372.167 238.5,430.5C 169.062,420.547 120.229,383.547 92,319.5C 69.5707,255.078 79.2374,196.078 121,142.5C 152.062,107.219 190.895,86.5526 237.5,80.5 Z"/></g>
</svg>
