<?xml version="1.0" standalone="no"?>
<!DOCTYPE svg PUBLIC "-//W3C//DTD SVG 20010904//EN"
 "http://www.w3.org/TR/2001/REC-SVG-20010904/DTD/svg10.dtd">
<svg version="1.0" xmlns="http://www.w3.org/2000/svg"
 width="512.000000pt" height="512.000000pt" viewBox="0 0 512.000000 512.000000"
 preserveAspectRatio="xMidYMid meet">

<g transform="translate(0.000000,512.000000) scale(0.100000,-0.100000)"
fill="#000000" stroke="none">
<path d="M2465 5111 c-22 -3 -56 -18 -76 -31 -19 -14 -449 -441 -955 -950
-725 -729 -925 -936 -945 -975 -33 -68 -33 -178 -1 -251 49 -109 155 -177 277
-177 137 -1 113 -21 745 609 498 495 569 563 603 569 47 9 91 -8 117 -45 19
-27 20 -59 22 -1821 l3 -1794 26 -55 c36 -77 80 -124 147 -157 76 -37 181 -39
258 -5 63 29 126 91 156 157 l23 50 5 1800 c4 1437 8 1805 18 1822 25 45 98
66 145 42 12 -6 276 -264 587 -574 630 -627 598 -601 735 -599 90 1 159 30
218 93 56 60 82 127 82 211 0 136 62 65 -968 1097 -664 665 -944 939 -979 958
-39 21 -66 28 -126 30 -42 2 -95 0 -117 -4z"/>
</g>
</svg>
