<?xml version="1.0" encoding="UTF-8"?>
<!DOCTYPE svg PUBLIC "-//W3C//DTD SVG 1.1//EN" "http://www.w3.org/Graphics/SVG/1.1/DTD/svg11.dtd">
<svg xmlns="http://www.w3.org/2000/svg" version="1.1" width="512px" height="512px" style="shape-rendering:geometricPrecision; text-rendering:geometricPrecision; image-rendering:optimizeQuality; fill-rule:evenodd; clip-rule:evenodd" xmlns:xlink="http://www.w3.org/1999/xlink">
<g><path style="opacity:0.964" fill="#000000" d="M 251.5,25.5 C 260.755,24.3757 267.255,28.0424 271,36.5C 271.667,47.5 271.667,58.5 271,69.5C 266.527,78.4822 259.36,81.6489 249.5,79C 245,77.1667 241.833,74 240,69.5C 239.333,58.5 239.333,47.5 240,36.5C 242.437,31.2262 246.271,27.5595 251.5,25.5 Z"/></g>
<g><path style="opacity:0.945" fill="#000000" d="M 99.5,88.5 C 104.777,87.9312 109.777,88.7645 114.5,91C 120.667,97.1667 126.833,103.333 133,109.5C 139.679,123.809 135.345,132.809 120,136.5C 116.263,136.025 112.763,134.858 109.5,133C 101.928,126.099 95.0951,118.599 89,110.5C 86.5175,100.041 90.0175,92.7074 99.5,88.5 Z"/></g>
<g><path style="opacity:0.945" fill="#000000" d="M 400.5,88.5 C 416.985,86.818 424.152,94.1513 422,110.5C 415.905,118.599 409.072,126.099 401.5,133C 386.888,139.694 377.888,135.194 374.5,119.5C 374.969,115.926 376.136,112.592 378,109.5C 385.095,101.9 392.595,94.8998 400.5,88.5 Z"/></g>
<g><path style="opacity:0.991" fill="#000000" d="M 239.5,127.5 C 296.677,123.335 339.843,145.668 369,194.5C 384.441,225.548 387.775,257.882 379,291.5C 361.55,343.618 325.717,374.118 271.5,383C 214.402,387.491 171.236,365.324 142,316.5C 126.559,285.452 123.225,253.118 132,219.5C 149.618,167.371 185.452,136.704 239.5,127.5 Z"/></g>
<g><path style="opacity:0.964" fill="#000000" d="M 36.5,239.5 C 47.505,239.333 58.505,239.5 69.5,240C 78.4822,244.473 81.6489,251.64 79,261.5C 77.1667,266 74,269.167 69.5,271C 58.5,271.667 47.5,271.667 36.5,271C 25.9098,265.564 23.0764,257.397 28,246.5C 30.4639,243.519 33.2972,241.186 36.5,239.5 Z"/></g>
<g><path style="opacity:0.964" fill="#000000" d="M 441.5,239.5 C 452.505,239.333 463.505,239.5 474.5,240C 485.09,245.436 487.924,253.603 483,264.5C 480.736,267.433 477.902,269.6 474.5,271C 463.5,271.667 452.5,271.667 441.5,271C 432.518,266.527 429.351,259.36 432,249.5C 434.022,244.98 437.189,241.647 441.5,239.5 Z"/></g>
<g><path style="opacity:0.945" fill="#000000" d="M 117.5,374.5 C 134.587,376.676 139.754,385.676 133,401.5C 126.833,407.667 120.667,413.833 114.5,420C 108.675,422.923 102.675,423.256 96.5,421C 89.2863,416.037 86.7863,409.203 89,400.5C 95.0951,392.401 101.928,384.901 109.5,378C 112.158,376.522 114.825,375.355 117.5,374.5 Z"/></g>
<g><path style="opacity:0.945" fill="#000000" d="M 388.5,374.5 C 393.127,374.573 397.46,375.74 401.5,378C 409.072,384.901 415.905,392.401 422,400.5C 424.214,409.203 421.714,416.037 414.5,421C 408.325,423.256 402.325,422.923 396.5,420C 390.333,413.833 384.167,407.667 378,401.5C 371.648,388.532 375.148,379.532 388.5,374.5 Z"/></g>
<g><path style="opacity:0.965" fill="#000000" d="M 249.5,431.5 C 259.36,429.35 266.527,432.683 271,441.5C 271.667,452.5 271.667,463.5 271,474.5C 265.521,484.915 257.354,487.748 246.5,483C 243.567,480.736 241.4,477.902 240,474.5C 239.333,463.5 239.333,452.5 240,441.5C 242.022,436.98 245.189,433.647 249.5,431.5 Z"/></g>
</svg>
